<svg width="1440" height="1080" viewBox="0 0 1440 1080" fill="none" xmlns="http://www.w3.org/2000/svg">
<g clip-path="url(#clip0_139_32413)">
<rect width="1440" height="1080" fill="#8E2157"/>
<mask id="mask0_139_32413" style="mask-type:alpha" maskUnits="userSpaceOnUse" x="0" y="0" width="1440" height="1080">
<rect width="1440" height="1080" rx="10" fill="#8E2157"/>
</mask>
<g mask="url(#mask0_139_32413)">
<g filter="url(#filter0_f_139_32413)" style="mix-blend-mode:soft-light">
<path d="M1032.62 1570.53L1116.62 1504.87C1141.59 1671.6 1173.3 1787.4 1211.05 1849.84C1264.45 1938.17 1315.42 1898.47 1362.54 1732.06C1409.69 1565.39 1440.64 1319.18 1454.49 1000.19C1463.55 791.558 1463.43 579.325 1454.18 369.391C1444.93 159.939 1427.76 -23.3361 1403.18 -175C1378.57 -327.038 1348.5 -433.158 1313.82 -490.523C1261.88 -576.432 1211.62 -538.892 1164.44 -378.754C1116.91 -217.614 1085.44 34.5446 1070.84 370.831C1064.68 512.822 1062.54 653.865 1064.49 790.592L1009.48 1351.26C1008.33 1363.12 1007.44 1375.76 1006.87 1388.91C1005.17 1428.06 1006.17 1470.73 1009.89 1505.71C1014.83 1552.51 1023.67 1577.75 1032.63 1570.72L1032.62 1570.53Z" fill="url(#paint0_linear_139_32413)" fill-opacity="0.6"/>
</g>
<g filter="url(#filter1_f_139_32413)" style="mix-blend-mode:soft-light">
<path d="M-132.108 430.113L-48.1078 364.452C-23.1317 531.186 8.57684 646.98 46.326 709.42C99.7262 797.747 150.694 758.055 197.812 591.639C244.966 424.968 275.921 178.766 289.768 -140.233C298.824 -348.86 298.711 -561.093 289.456 -771.027C280.206 -980.479 263.038 -1163.75 238.461 -1315.42C213.848 -1467.46 183.775 -1573.58 149.094 -1630.94C97.1555 -1716.85 46.8976 -1679.31 -0.281602 -1519.17C-47.8126 -1358.03 -79.283 -1105.87 -93.8799 -769.587C-100.043 -627.596 -102.184 -486.553 -100.232 -349.826L-155.24 210.842C-156.398 222.706 -157.28 235.341 -157.851 248.491C-159.55 287.645 -158.551 330.314 -154.829 365.292C-149.898 412.088 -141.053 437.329 -132.09 430.3L-132.108 430.113Z" fill="url(#paint1_linear_139_32413)" fill-opacity="0.6"/>
</g>
<g filter="url(#filter2_f_139_32413)" style="mix-blend-mode:soft-light">
<path d="M464.935 2408.86L548.935 2343.19C573.911 2509.93 605.62 2625.72 643.369 2688.16C696.769 2776.49 747.737 2736.8 794.855 2570.38C842.009 2403.71 872.964 2157.51 886.811 1838.51C895.867 1629.88 895.754 1417.65 886.499 1207.72C877.249 998.264 860.081 814.988 835.503 663.324C810.891 511.286 780.818 405.167 746.137 347.801C694.198 261.892 643.941 299.433 596.761 459.57C549.23 620.71 517.76 872.869 503.163 1209.16C497 1351.15 494.859 1492.19 496.811 1628.92L441.802 2189.58C440.645 2201.45 439.763 2214.08 439.192 2227.23C437.493 2266.39 438.492 2309.06 442.214 2344.03C447.144 2390.83 455.99 2416.07 464.953 2409.04L464.935 2408.86Z" fill="url(#paint2_linear_139_32413)" fill-opacity="0.6"/>
</g>
</g>
</g>
<defs>
<filter id="filter0_f_139_32413" x="952.071" y="-589.398" width="563.132" height="2539" filterUnits="userSpaceOnUse" color-interpolation-filters="sRGB">
<feFlood flood-opacity="0" result="BackgroundImageFix"/>
<feBlend mode="normal" in="SourceGraphic" in2="BackgroundImageFix" result="shape"/>
<feGaussianBlur stdDeviation="27" result="effect1_foregroundBlur_139_32413"/>
</filter>
<filter id="filter1_f_139_32413" x="-212.652" y="-1729.82" width="563.132" height="2539" filterUnits="userSpaceOnUse" color-interpolation-filters="sRGB">
<feFlood flood-opacity="0" result="BackgroundImageFix"/>
<feBlend mode="normal" in="SourceGraphic" in2="BackgroundImageFix" result="shape"/>
<feGaussianBlur stdDeviation="27" result="effect1_foregroundBlur_139_32413"/>
</filter>
<filter id="filter2_f_139_32413" x="384.391" y="248.926" width="563.132" height="2539" filterUnits="userSpaceOnUse" color-interpolation-filters="sRGB">
<feFlood flood-opacity="0" result="BackgroundImageFix"/>
<feBlend mode="normal" in="SourceGraphic" in2="BackgroundImageFix" result="shape"/>
<feGaussianBlur stdDeviation="27" result="effect1_foregroundBlur_139_32413"/>
</filter>
<linearGradient id="paint0_linear_139_32413" x1="1454.06" y1="1010.22" x2="1091.71" y2="1022.23" gradientUnits="userSpaceOnUse">
<stop stop-color="white"/>
<stop offset="1" stop-color="white" stop-opacity="0"/>
</linearGradient>
<linearGradient id="paint1_linear_139_32413" x1="289.332" y1="-130.202" x2="-73.0114" y2="-118.191" gradientUnits="userSpaceOnUse">
<stop stop-color="white"/>
<stop offset="1" stop-color="white" stop-opacity="0"/>
</linearGradient>
<linearGradient id="paint2_linear_139_32413" x1="886.375" y1="1848.54" x2="524.032" y2="1860.55" gradientUnits="userSpaceOnUse">
<stop stop-color="white"/>
<stop offset="1" stop-color="white" stop-opacity="0"/>
</linearGradient>
<clipPath id="clip0_139_32413">
<rect width="1440" height="1080" fill="white"/>
</clipPath>
</defs>
</svg>
