<svg width="54" height="54" viewBox="0 0 54 54" fill="none" xmlns="http://www.w3.org/2000/svg">
<path d="M10.318 25.682C9.47411 24.8381 9 23.6935 9 22.5C9 21.3065 9.47411 20.1619 10.318 19.318C11.1619 18.4741 12.3065 18 13.5 18C14.6935 18 15.8381 18.4741 16.682 19.318C17.5259 20.1619 18 21.3065 18 22.5C18 23.6935 17.5259 24.8381 16.682 25.682C15.8381 26.5259 14.6935 27 13.5 27C12.3065 27 11.1619 26.5259 10.318 25.682Z" stroke="#8E2157" stroke-width="4" stroke-linecap="round" stroke-linejoin="round"/>
<path d="M13.5 9V18" stroke="#8E2157" stroke-width="4" stroke-linecap="round" stroke-linejoin="round"/>
<path d="M13.5 27V45" stroke="#8E2157" stroke-width="4" stroke-linecap="round" stroke-linejoin="round"/>
<path d="M27 9V30.375" stroke="#8E2157" stroke-width="4" stroke-linecap="round" stroke-linejoin="round"/>
<path d="M37.318 18.932C36.4741 18.0881 36 16.9435 36 15.75C36 14.5565 36.4741 13.4119 37.318 12.568C38.1619 11.7241 39.3065 11.25 40.5 11.25C41.6935 11.25 42.8381 11.7241 43.682 12.568C44.5259 13.4119 45 14.5565 45 15.75C45 16.9435 44.5259 18.0881 43.682 18.932C42.8381 19.7759 41.6935 20.25 40.5 20.25C39.3065 20.25 38.1619 19.7759 37.318 18.932Z" stroke="#8E2157" stroke-width="4" stroke-linecap="round" stroke-linejoin="round"/>
<path d="M40.5 9V11.25" stroke="#8E2157" stroke-width="4" stroke-linecap="round" stroke-linejoin="round"/>
<path d="M40.0491 46.8393L35.1621 49.3998C35.017 49.4753 34.8539 49.509 34.6908 49.4971C34.5278 49.4852 34.3712 49.4283 34.2386 49.3326C34.1061 49.2369 34.0027 49.1062 33.9401 48.9552C33.8775 48.8042 33.8581 48.6387 33.8841 48.4773L34.8178 43.0525L30.8646 39.2118C30.7466 39.0977 30.663 38.9528 30.6235 38.7935C30.5839 38.6342 30.5899 38.467 30.6408 38.311C30.6917 38.155 30.7855 38.0164 30.9114 37.9111C31.0373 37.8058 31.1903 37.7381 31.3528 37.7155L36.8158 36.9235L39.2593 31.9893C39.3324 31.8423 39.445 31.7187 39.5846 31.6322C39.7241 31.5458 39.8849 31.5 40.0491 31.5C40.2132 31.5 40.3741 31.5458 40.5136 31.6322C40.6531 31.7187 40.7657 31.8423 40.8388 31.9893L43.2823 36.9235L48.7453 37.7155C48.9074 37.7389 49.0597 37.8071 49.1851 37.9125C49.3104 38.0178 49.4038 38.1562 49.4546 38.3119C49.5054 38.4676 49.5116 38.6344 49.4725 38.7934C49.4335 38.9524 49.3507 39.0974 49.2336 39.2118L45.2803 43.0525L46.2118 48.475C46.2398 48.6367 46.2218 48.803 46.16 48.9551C46.0982 49.1071 45.995 49.2387 45.8621 49.335C45.7293 49.4313 45.5721 49.4884 45.4084 49.4999C45.2447 49.5113 45.081 49.4767 44.9361 49.3998L40.0491 46.8393Z" stroke="#8E2157" stroke-width="4" stroke-linecap="round" stroke-linejoin="round"/>
<path d="M40.5 20.25V22.5" stroke="#8E2157" stroke-width="4" stroke-linecap="round" stroke-linejoin="round"/>
</svg>
