<svg width="31" height="32" viewBox="0 0 31 32" fill="none" xmlns="http://www.w3.org/2000/svg">
<path d="M30.003 29.0738L27.573 23.1323C29.0626 20.7737 29.8149 18.0841 29.8149 15.1218C29.8149 10.9313 28.3423 7.32577 25.4401 4.40484C22.5342 1.48202 19.002 -0.00195312 14.9413 -0.00195312C12.2856 -0.00195312 9.76716 0.680789 7.45562 2.02558C5.14972 3.3685 3.31026 5.20795 1.99179 7.4894C0.66957 9.77461 0 12.3137 0 15.0353C0 19.1111 1.43319 22.6715 4.26196 25.6169C7.10954 28.5848 10.7226 30.0876 15.0034 30.0876C16.8109 30.0876 18.5281 29.7961 20.1136 29.2186L27.8532 31.4644C28.0169 31.5114 28.1843 31.5358 28.3517 31.5358C28.8501 31.5358 29.3372 31.3271 29.6795 30.9434C30.1384 30.4337 30.2645 29.7058 30.0049 29.0719L30.003 29.0738Z" fill="#8E2157"/>
<path d="M22.3764 14.5524L19.5344 16.6176C19.2824 16.8019 19.1752 17.1273 19.273 17.4244L20.3583 20.7667C20.772 22.0419 19.3125 23.1027 18.2292 22.3146L15.3872 20.2494C15.1352 20.0651 14.791 20.0651 14.539 20.2494L11.697 22.3146C10.6118 23.1027 9.15226 22.0419 9.56792 20.7667L10.6532 17.4244C10.7491 17.1273 10.6438 16.8019 10.3917 16.6176L7.54978 14.5524C6.46454 13.7643 7.02315 12.049 8.36419 12.049H11.8776C12.1898 12.049 12.4682 11.8478 12.5641 11.5506L13.6493 8.20836C14.0631 6.93315 15.8668 6.93315 16.2825 8.20836L17.3677 11.5506C17.4636 11.8478 17.742 12.049 18.0542 12.049H21.5676C22.9087 12.049 23.4654 13.7643 22.382 14.5524H22.3764Z" fill="white"/>
</svg>
