<svg width="20" height="20" viewBox="0 0 20 20" fill="none" xmlns="http://www.w3.org/2000/svg">
<g clip-path="url(#clip0_270_597)">
<path d="M10.0003 1.66798C11.9089 1.66528 13.76 2.32039 15.242 3.52298C15.3356 3.59877 15.4116 3.69395 15.4649 3.80196C15.5182 3.90997 15.5474 4.02824 15.5505 4.14863C15.5537 4.26902 15.5307 4.38866 15.4832 4.49932C15.4357 4.60998 15.3648 4.70903 15.2753 4.78964L14.017 5.92464C13.874 6.05336 13.691 6.12867 13.4988 6.13778C13.3067 6.1469 13.1173 6.08926 12.9628 5.97464C12.1155 5.3519 11.0935 5.01213 10.042 5.00366C8.99046 4.99519 7.96305 5.31845 7.10583 5.92747C6.24861 6.53649 5.60522 7.40026 5.26715 8.39597C4.92907 9.39168 4.91353 10.4686 5.22272 11.4737C5.53191 12.4787 6.15009 13.3607 6.98937 13.9942C7.82866 14.6277 8.8463 14.9805 9.89761 15.0024C10.9489 15.0243 11.9804 14.7142 12.8453 14.1161C13.7102 13.5181 14.3646 12.6626 14.7153 11.6713L14.7162 11.668H11.6662C11.4622 11.6677 11.2654 11.5927 11.113 11.4571C10.9607 11.3215 10.8634 11.1347 10.8395 10.9321L10.8337 10.8346V9.16798C10.8337 8.94696 10.9215 8.735 11.0777 8.57872C11.234 8.42244 11.446 8.33464 11.667 8.33464H17.4545C17.6596 8.33463 17.8576 8.41029 18.0104 8.54714C18.1633 8.68399 18.2603 8.8724 18.2828 9.07631C18.3162 9.38214 18.3337 9.69048 18.3337 10.0013C18.3337 14.6038 14.6028 18.3346 10.0003 18.3346C5.39783 18.3346 1.66699 14.6038 1.66699 10.0013C1.66699 5.39881 5.39783 1.66798 10.0003 1.66798Z" fill="#FF4C51"/>
</g>
<defs>
<clipPath id="clip0_270_597">
<rect width="20" height="20" fill="white"/>
</clipPath>
</defs>
</svg>
