<svg width="14" height="14" viewBox="0 0 14 14" fill="none" xmlns="http://www.w3.org/2000/svg">
<path d="M3.11954 4.25485V13.1016H0.175974V4.25485H3.11954ZM3.31152 1.51925C3.31152 1.95652 3.15687 2.31913 2.84758 2.60709C2.5383 2.89505 2.13835 3.03903 1.64776 3.03903H1.63176C1.14117 3.03903 0.746558 2.89505 0.447935 2.60709C0.149312 2.31913 0 1.95652 0 1.51925C0 1.08198 0.154644 0.719368 0.463932 0.431411C0.773221 0.143453 1.17316 -0.000526428 1.66376 -0.000526428C2.15435 -0.000526428 2.54896 0.143453 2.84758 0.431411C3.14621 0.719368 3.30085 1.08198 3.31152 1.51925ZM13.71 8.0303V13.1016H10.7824V8.36625C10.7824 7.73701 10.6598 7.24642 10.4145 6.89447C10.1692 6.54252 9.79057 6.36654 9.27865 6.36654C8.90537 6.36654 8.59608 6.46786 8.35078 6.6705C8.10548 6.87314 7.91351 7.1291 7.77487 7.43839C7.71088 7.6197 7.67888 7.85966 7.67888 8.15828V13.1016H4.73531C4.74597 10.7232 4.75131 8.79819 4.75131 7.3264V4.68679L4.73531 4.25485H7.67888V5.53467H7.66288C7.7802 5.34269 7.90285 5.17738 8.03083 5.03874C8.15881 4.90009 8.32412 4.74545 8.52676 4.57481C8.72939 4.40416 8.99069 4.27618 9.31064 4.19086C9.6306 4.10554 9.97188 4.05755 10.3345 4.04688C11.3477 4.04688 12.1636 4.38283 12.7821 5.05474C13.4007 5.72664 13.71 6.71849 13.71 8.0303Z" fill="#2A0F2B"/>
</svg>
