<svg width="128" height="32" viewBox="0 0 128 32" fill="none" xmlns="http://www.w3.org/2000/svg">
<g clip-path="url(#clip0_139_29311)">
<path d="M127.866 29.0758L125.436 23.1342C126.926 20.7757 127.678 18.0861 127.678 15.1238C127.678 10.9333 126.206 7.32772 123.303 4.40679C120.398 1.48398 116.865 0 112.805 0C110.149 0 107.63 0.682742 105.319 2.02754C103.013 3.37045 101.174 5.2099 99.8551 7.49135C98.5329 9.77656 97.8633 12.3157 97.8633 15.0373C97.8633 19.113 99.2965 22.6734 102.125 25.6188C104.973 28.5868 108.586 30.0895 112.867 30.0895C114.674 30.0895 116.391 29.798 117.977 29.2206L125.717 31.4663C125.88 31.5133 126.048 31.5378 126.215 31.5378C126.713 31.5378 127.2 31.329 127.543 30.9453C128.002 30.4356 128.128 29.7077 127.868 29.0739L127.866 29.0758Z" fill="#8E2157"/>
<path d="M19.9274 22.8859C19.177 21.6578 18.3231 20.4973 17.3657 19.4083C16.4084 18.3193 15.4059 17.4955 14.3564 16.9369C16.8541 16.3914 18.718 15.4698 19.9462 14.1664C21.1744 12.8649 21.7894 11.1251 21.7894 8.94521C21.7894 7.88254 21.607 6.8763 21.2421 5.92648C20.8772 4.97666 20.3412 4.14345 19.6378 3.42497C18.9325 2.70838 18.1237 2.15729 17.2058 1.77172C16.4479 1.42565 15.5977 1.19807 14.6554 1.08334C13.7113 0.970487 12.5752 0.914062 11.2474 0.914062H3.62624C2.35104 0.914062 1.42755 1.19995 0.855778 1.77172C0.285886 2.34161 0 3.2651 0 4.54031V27.02C0 28.203 0.259555 29.1002 0.776783 29.7096C1.29589 30.3209 2.02566 30.6256 2.96983 30.6256C3.8463 30.6256 4.55725 30.334 5.1027 29.7491C5.64814 29.1642 5.91898 28.2538 5.91898 27.0181V17.6309H5.98669C7.03619 17.6309 7.90702 17.7701 8.59728 18.0503C9.28755 18.3287 9.96841 18.8478 10.6399 19.6039C11.3113 20.3619 12.0712 21.464 12.9213 22.9123L15.293 26.8583C15.8516 27.7893 16.2918 28.4927 16.619 28.9704C16.9444 29.4482 17.3337 29.845 17.7851 30.1554C18.2365 30.4676 18.7951 30.6237 19.4591 30.6237C20.0177 30.6237 20.5086 30.5146 20.9337 30.2945C21.3587 30.0745 21.6935 29.7773 21.9399 29.3974C22.1863 29.0193 22.3085 28.6375 22.3085 28.2519C22.3085 27.8664 22.0998 27.1987 21.6803 26.2094C21.2628 25.22 20.6779 24.1104 19.9274 22.8803V22.8859ZM12.8028 13.021C11.8323 13.2674 10.638 13.3896 9.21607 13.3896H5.91898V5.35847H9.37595C11.4091 5.35847 12.7708 5.50517 13.4611 5.7967C14.1909 6.10328 14.7626 6.56408 15.1745 7.18099C15.5865 7.79979 15.7933 8.51262 15.7933 9.32326C15.7933 10.3596 15.5375 11.174 15.026 11.7646C14.5144 12.3552 13.7733 12.7746 12.8047 13.021H12.8028Z" fill="#1E1E1E"/>
<path d="M42.1981 5.9343C41.8388 4.99201 41.5435 4.23779 41.3103 3.67166C41.0771 3.10741 40.7931 2.5789 40.4527 2.088C40.1141 1.59711 39.6684 1.19461 39.1173 0.88239C38.5662 0.570172 37.8778 0.414062 37.054 0.414062C36.2302 0.414062 35.5625 0.570172 35.0114 0.88239C34.4603 1.19461 34.0146 1.60275 33.676 2.10869C33.3375 2.61464 33.0177 3.24848 32.7187 4.01209C32.4196 4.77571 32.1638 5.43024 31.9513 5.97568L24.4788 24.9476C24.1722 25.7056 23.954 26.2962 23.8205 26.7213C23.6869 27.1463 23.6211 27.5582 23.6211 27.957C23.6211 28.6472 23.907 29.266 24.4788 29.8096C25.0505 30.355 25.7069 30.6259 26.4517 30.6259C27.3282 30.6259 27.9602 30.3701 28.3457 29.8585C28.7313 29.3469 29.1959 28.3613 29.7413 26.8999L31.1369 23.1533H43.0143L44.4099 26.8209C44.5961 27.2723 44.8181 27.7952 45.0776 28.3858C45.3372 28.9764 45.5798 29.4165 45.8055 29.7005C46.0312 29.9864 46.3096 30.2121 46.6425 30.3776C46.9735 30.5431 47.3722 30.6259 47.8387 30.6259C48.6362 30.6259 49.317 30.3437 49.8813 29.7795C50.4455 29.2152 50.7276 28.5946 50.7276 27.9156C50.7276 27.2366 50.4286 26.221 49.8305 24.7859L42.1981 5.93242V5.9343ZM32.6923 18.7089L37.0164 6.65278L41.4213 18.7089H32.6923Z" fill="#1E1E1E"/>
<path d="M68.7831 0.914062H49.9711C49.0006 0.914062 48.2595 1.13412 47.7498 1.57235C47.2382 2.01059 46.9824 2.60869 46.9824 3.36667C46.9824 4.12464 47.2288 4.68513 47.7197 5.13089C48.2106 5.57664 48.9611 5.79858 49.9711 5.79858H56.428V27.0219C56.428 28.2313 56.7026 29.1341 57.2555 29.7322C57.8066 30.3303 58.5213 30.6293 59.3978 30.6293C60.2743 30.6293 60.9645 30.334 61.51 29.7416C62.0554 29.151 62.3262 28.2444 62.3262 27.0219V5.7967H68.7831C69.7931 5.7967 70.5492 5.57476 71.0552 5.12901C71.5593 4.68325 71.8132 4.09643 71.8132 3.36479C71.8132 2.63314 71.5649 2.04256 71.0665 1.59116C70.5681 1.13976 69.8082 0.914062 68.785 0.914062H68.7831Z" fill="#1E1E1E"/>
<path d="M93.3277 26.0719C92.8556 25.6412 92.156 25.4249 91.225 25.4249H79.5676V17.1154H89.7109C90.6287 17.1154 91.3058 16.9066 91.7441 16.4872C92.1823 16.0678 92.4024 15.528 92.4024 14.8622C92.4024 14.1964 92.1804 13.6641 91.7347 13.2578C91.2889 12.8534 90.6156 12.6503 89.7128 12.6503H79.5694V5.47494H90.7698C91.7121 5.47494 92.4136 5.26616 92.8726 4.84674C93.3315 4.42731 93.5609 3.87435 93.5609 3.1822C93.5609 2.49005 93.3315 1.9559 92.8726 1.53835C92.4136 1.11893 91.714 0.910156 90.7698 0.910156H77.2786C76.4416 0.910156 75.7532 1.03241 75.2153 1.2788C74.6774 1.52519 74.2824 1.9164 74.0304 2.45432C73.7784 2.99224 73.6523 3.68626 73.6523 4.5364V26.497C73.6523 27.7722 73.9345 28.6957 74.4987 29.2675C75.063 29.8392 75.9902 30.1251 77.2786 30.1251H91.2287C92.1579 30.1251 92.8594 29.9088 93.3315 29.4781C93.8036 29.0474 94.0387 28.485 94.0387 27.7948C94.0387 27.1045 93.8036 26.5026 93.3315 26.07L93.3277 26.0719Z" fill="#1E1E1E"/>
<path d="M120.242 14.5544L117.4 16.6195C117.148 16.8038 117.04 17.1292 117.138 17.4264L118.223 20.7686C118.637 22.0438 117.178 23.1046 116.094 22.3165L113.252 20.2514C113 20.0671 112.656 20.0671 112.404 20.2514L109.562 22.3165C108.477 23.1046 107.017 22.0438 107.433 20.7686L108.518 17.4264C108.614 17.1292 108.509 16.8038 108.257 16.6195L105.415 14.5544C104.33 13.7663 104.888 12.051 106.229 12.051H109.743C110.055 12.051 110.333 11.8497 110.429 11.5525L111.515 8.21031C111.928 6.93511 113.732 6.93511 114.148 8.21031L115.233 11.5525C115.329 11.8497 115.607 12.051 115.919 12.051H119.433C120.774 12.051 121.331 13.7663 120.247 14.5544H120.242Z" fill="white"/>
</g>
<defs>
<clipPath id="clip0_139_29311">
<rect width="128" height="31.5378" fill="white"/>
</clipPath>
</defs>
</svg>
