<svg width="19" height="19" viewBox="0 0 19 19" fill="none" xmlns="http://www.w3.org/2000/svg">
<path d="M9.04905 0.00641664L9.15355 0L9.26171 0.00641664L9.3158 0.0137501L9.37171 0.0256668L9.47346 0.0568334C9.54374 0.0827413 9.61055 0.117224 9.67238 0.1595L9.76771 0.234667L10.0015 0.4345C11.8507 1.97043 14.1878 2.79519 16.5914 2.76008L16.9049 2.75092C17.1098 2.74157 17.312 2.80125 17.479 2.92041C17.6461 3.03957 17.7683 3.21132 17.8261 3.40817C18.2766 4.94045 18.4144 6.54764 18.2315 8.13424C18.0485 9.72085 17.5485 11.2545 16.7611 12.644C15.9737 14.0336 14.9151 15.2506 13.648 16.223C12.381 17.1953 10.9314 17.903 9.38546 18.304C9.23457 18.3431 9.07619 18.3431 8.9253 18.304C7.37927 17.9031 5.9296 17.1954 4.66246 16.2232C3.39532 15.2509 2.33655 14.0338 1.54909 12.6443C0.761617 11.2547 0.261514 9.72106 0.0784956 8.13441C-0.104522 6.54776 0.0332799 4.94051 0.483713 3.40817C0.541564 3.21132 0.663783 3.03957 0.830807 2.92041C0.997831 2.80125 1.2 2.74157 1.40496 2.75092C3.9143 2.86562 6.37611 2.03957 8.30838 0.4345L8.54946 0.22825L8.63746 0.1595C8.69929 0.117224 8.7661 0.0827413 8.83638 0.0568334L8.93905 0.0256668C8.97497 0.0169893 9.01232 0.01056 9.04905 0.00641664Z" fill="#8E2157"/>
</svg>
