<svg width="70" height="70" viewBox="0 0 70 70" fill="none" xmlns="http://www.w3.org/2000/svg">
<path d="M38.4715 17.5H19.8048C19.0465 17.5 18.3173 17.5292 17.6173 17.6167C9.77148 18.2875 5.83398 22.925 5.83398 31.4708V43.1375C5.83398 54.8042 10.5007 57.1083 19.8048 57.1083H20.9715C21.6132 57.1083 22.459 57.5458 22.8382 58.0417L26.3382 62.7083C27.884 64.7792 30.3923 64.7792 31.9381 62.7083L35.4381 58.0417C35.8756 57.4583 36.5756 57.1083 37.3048 57.1083H38.4715C47.0173 57.1083 51.6548 53.2 52.3256 45.325C52.4132 44.625 52.4423 43.8958 52.4423 43.1375V31.4708C52.4423 22.1667 47.7756 17.5 38.4715 17.5ZM18.959 40.8333C17.3257 40.8333 16.0423 39.5208 16.0423 37.9167C16.0423 36.3125 17.3548 35 18.959 35C20.5632 35 21.8757 36.3125 21.8757 37.9167C21.8757 39.5208 20.5632 40.8333 18.959 40.8333ZM29.1381 40.8333C27.5048 40.8333 26.2215 39.5208 26.2215 37.9167C26.2215 36.3125 27.534 35 29.1381 35C30.7423 35 32.0548 36.3125 32.0548 37.9167C32.0548 39.5208 30.7715 40.8333 29.1381 40.8333ZM39.3465 40.8333C37.7131 40.8333 36.4298 39.5208 36.4298 37.9167C36.4298 36.3125 37.7423 35 39.3465 35C40.9506 35 42.2631 36.3125 42.2631 37.9167C42.2631 39.5208 40.9506 40.8333 39.3465 40.8333Z" fill="white"/>
<path d="M64.1087 19.8029V31.4695C64.1087 37.3029 62.3004 41.2695 58.6837 43.457C57.8087 43.982 56.7879 43.282 56.7879 42.2612L56.8171 31.4695C56.8171 19.8029 50.1379 13.1237 38.4712 13.1237L20.7087 13.1529C19.6879 13.1529 18.9879 12.132 19.5129 11.257C21.7004 7.64036 25.6671 5.83203 31.4712 5.83203H50.1379C59.4421 5.83203 64.1087 10.4987 64.1087 19.8029Z" fill="white"/>
</svg>
