<svg width="70" height="70" viewBox="0 0 70 70" fill="none" xmlns="http://www.w3.org/2000/svg">
<path d="M51.129 22.6612C50.9249 22.632 50.7207 22.632 50.5165 22.6612C45.9957 22.5154 42.4082 18.8112 42.4082 14.2612C42.4082 9.6237 46.1707 5.83203 50.8374 5.83203C55.4749 5.83203 59.2665 9.59453 59.2665 14.2612C59.2374 18.8112 55.6499 22.5154 51.129 22.6612Z" fill="white"/>
<path d="M60.6369 42.8742C57.3702 45.0617 52.791 45.8784 48.5618 45.3242C49.6702 42.9326 50.2535 40.2784 50.2827 37.4784C50.2827 34.5617 49.641 31.7909 48.416 29.3701C52.7327 28.7867 57.3119 29.6034 60.6077 31.7909C65.216 34.8242 65.216 39.8117 60.6369 42.8742Z" fill="white"/>
<path d="M18.7841 22.6612C18.9883 22.632 19.1924 22.632 19.3966 22.6612C23.9174 22.5154 27.5049 18.8112 27.5049 14.2612C27.5049 9.59453 23.7424 5.83203 19.0758 5.83203C14.4383 5.83203 10.6758 9.59453 10.6758 14.2612C10.6758 18.8112 14.2633 22.5154 18.7841 22.6612Z" fill="white"/>
<path d="M19.1038 37.4789C19.1038 40.3081 19.7163 42.9914 20.8246 45.4123C16.7121 45.8498 12.4246 44.9748 9.27461 42.9039C4.66628 39.8414 4.66628 34.8539 9.27461 31.7914C12.3954 29.6914 16.7996 28.8456 20.9413 29.3123C19.7454 31.7623 19.1038 34.5331 19.1038 37.4789Z" fill="white"/>
<path d="M35.35 46.2875C35.1167 46.2583 34.8542 46.2583 34.5917 46.2875C29.225 46.1125 24.9375 41.7083 24.9375 36.2833C24.9667 30.7417 29.4292 26.25 35 26.25C40.5417 26.25 45.0333 30.7417 45.0333 36.2833C45.0042 41.7083 40.7458 46.1125 35.35 46.2875Z" fill="white"/>
<path d="M25.8715 52.3242C21.4673 55.2701 21.4673 60.1117 25.8715 63.0284C30.8882 66.3826 39.1132 66.3826 44.1298 63.0284C48.534 60.0826 48.534 55.2409 44.1298 52.3242C39.1423 48.9701 30.9173 48.9701 25.8715 52.3242Z" fill="white"/>
</svg>
