<svg width="84" height="84" viewBox="0 0 84 84" fill="none" xmlns="http://www.w3.org/2000/svg">
<path d="M37.1 14.525C37.1 15.19 36.54 15.75 35.875 15.75H31.92C24.36 15.75 18.2 21.91 18.2 29.47V61.775C18.2 62.44 17.64 63 16.975 63H14.525C10.36 63 7 59.64 7 55.475V14.525C7 10.36 10.36 7 14.525 7H29.575C33.74 7 37.1 10.36 37.1 14.525Z" fill="white"/>
<path d="M77.0004 14.525V55.475C77.0004 59.64 73.6404 63 69.4754 63H67.2704C66.6054 63 66.0454 62.44 66.0454 61.775V29.47C66.0454 21.91 59.8854 15.75 52.3254 15.75H48.1254C47.4604 15.75 46.9004 15.19 46.9004 14.525C46.9004 10.36 50.2604 7 54.4254 7H69.4754C73.6404 7 77.0004 10.36 77.0004 14.525Z" fill="white"/>
<path d="M52.3242 21H31.9192C27.2292 21 23.4492 24.78 23.4492 29.47V68.53C23.4492 73.22 27.2292 77 31.9192 77H37.6242C38.6042 77 39.3742 76.23 39.3742 75.25V66.5C39.3742 65.065 40.5642 63.875 41.9992 63.875C43.4342 63.875 44.6242 65.065 44.6242 66.5V75.25C44.6242 76.23 45.3942 77 46.3742 77H52.3592C57.0142 77 60.7942 73.22 60.7942 68.565V29.47C60.7942 24.78 57.0142 21 52.3242 21ZM48.9992 51.625H34.9992C33.5642 51.625 32.3742 50.435 32.3742 49C32.3742 47.565 33.5642 46.375 34.9992 46.375H48.9992C50.4342 46.375 51.6242 47.565 51.6242 49C51.6242 50.435 50.4342 51.625 48.9992 51.625ZM48.9992 41.125H34.9992C33.5642 41.125 32.3742 39.935 32.3742 38.5C32.3742 37.065 33.5642 35.875 34.9992 35.875H48.9992C50.4342 35.875 51.6242 37.065 51.6242 38.5C51.6242 39.935 50.4342 41.125 48.9992 41.125Z" fill="white"/>
</svg>
