<svg width="16" height="12" viewBox="0 0 16 12" fill="none" xmlns="http://www.w3.org/2000/svg">
<path d="M6.35333 7.69762L10.6733 5.47362L6.35333 3.21762V7.69762ZM8.00133 0.00162411C9.004 0.00162411 9.96933 0.0176249 10.8973 0.0496244C11.8253 0.081624 12.508 0.108291 12.9453 0.129624L13.6013 0.161625L13.7453 0.177625C13.8413 0.188292 13.9107 0.198957 13.9533 0.209624C13.996 0.220291 14.0653 0.230958 14.1613 0.241625C14.2573 0.252291 14.3427 0.278957 14.4173 0.321625C14.492 0.364291 14.5773 0.401625 14.6733 0.433624C14.7693 0.465625 14.86 0.524291 14.9453 0.609625C15.0307 0.694958 15.116 0.774958 15.2013 0.849625C15.244 0.881624 15.292 0.934958 15.3453 1.00962C15.3987 1.08429 15.484 1.26029 15.6013 1.53762C15.7187 1.81496 15.7987 2.11362 15.8413 2.43362C15.884 2.81763 15.9213 3.22296 15.9533 3.64962C15.9853 4.07629 16.0013 4.41762 16.0013 4.67362V6.24162C16.012 7.10562 15.9587 7.96962 15.8413 8.83362C15.7987 9.15363 15.724 9.44696 15.6173 9.71362C15.5107 9.98029 15.4147 10.167 15.3293 10.2736L15.2013 10.4176C15.1267 10.503 15.0413 10.583 14.9453 10.6576C14.8493 10.7323 14.7587 10.7856 14.6733 10.8176C14.588 10.8496 14.5027 10.887 14.4173 10.9296C14.332 10.9723 14.2467 10.999 14.1613 11.0096L13.6013 11.0896C12.108 11.207 10.2413 11.2656 8.00133 11.2656L4.78533 11.2016C3.868 11.1803 3.276 11.159 3.00933 11.1376L2.24133 11.0576C2.028 11.0256 1.868 10.999 1.76133 10.9776C1.65467 10.9563 1.5 10.8923 1.29733 10.7856C1.09467 10.679 0.929333 10.5563 0.801333 10.4176C0.758667 10.3856 0.710667 10.3323 0.657333 10.2576C0.604 10.183 0.518667 10.007 0.401333 9.72962C0.284 9.45229 0.204 9.15363 0.161333 8.83362C0.118667 8.44962 0.0813333 8.04429 0.0493333 7.61762C0.0173333 7.19096 0.00133333 6.84962 0.00133333 6.59362V5.02562C-0.00933333 4.16162 0.044 3.29762 0.161333 2.43362C0.204 2.10296 0.278667 1.80962 0.385333 1.55362C0.492 1.29762 0.588 1.11096 0.673333 0.993625L0.801333 0.849625C0.886667 0.753625 0.972 0.673624 1.05733 0.609625C1.14267 0.545625 1.23333 0.486958 1.32933 0.433624C1.42533 0.380291 1.51067 0.342957 1.58533 0.321625L1.84133 0.241625C1.93733 0.209624 2.00667 0.198957 2.04933 0.209624C2.092 0.220291 2.16133 0.209624 2.25733 0.177625C2.35333 0.145624 2.40133 0.140291 2.40133 0.161625C3.89467 0.0549574 5.76133 0.00162411 8.00133 0.00162411Z" fill="#2A0F2B"/>
</svg>
